<?xml version="1.0" encoding="UTF-8"?><svg id="Layer_1" xmlns="http://www.w3.org/2000/svg" viewBox="0 0 249.52 58.75"><defs><style>.cls-1{fill:#262626;}.cls-2{fill:#f15a24;}</style></defs><g><path class="cls-1" d="M40.15,14.45c.77-1.43,1.73-2.81,2.87-4.13,1.14-1.32,2.38-2.56,3.74-3.71-2.06-.19-4.12-.46-6.17-.83-2.05-.36-4.06-.72-6.03-1.07s-3.89-.66-5.77-.91c-1.88-.26-3.67-.39-5.38-.39-2.18,0-4.01,.22-5.5,.67-1.49,.45-2.68,1.03-3.59,1.76-.9,.73-1.55,1.54-1.95,2.44-.4,.9-.6,1.82-.6,2.76s.16,1.74,.49,2.55c.33,.81,.81,1.52,1.44,2.14,.63,.62,1.42,1.12,2.36,1.49,.94,.38,2.03,.56,3.27,.56,.7,0,1.45-.06,2.25-.18,.8-.12,1.6-.29,2.41-.51,.81-.22,1.6-.49,2.37-.79,.77-.3,1.48-.64,2.11-1.02l.7,.84c-.77,.45-1.58,.84-2.43,1.18-.84,.34-1.69,.63-2.55,.88-.86,.25-1.71,.43-2.57,.56-.86,.13-1.67,.19-2.44,.19-1.41,0-2.65-.21-3.74-.62-1.09-.41-2.02-.97-2.78-1.69-.76-.71-1.34-1.55-1.74-2.51-.4-.96-.6-1.99-.6-3.09,0-1.48,.35-2.84,1.05-4.1,.7-1.25,1.74-2.34,3.11-3.25s3.08-1.63,5.13-2.14c2.05-.52,4.41-.77,7.08-.77,1.99,0,3.99,.13,5.99,.39,2,.26,4.03,.54,6.06,.86s4.1,.62,6.19,.9c2.09,.28,4.22,.46,6.4,.53,1.88-1.05,3.8-1.89,5.78-2.51,1.98-.62,3.97-.93,5.96-.93,1.01,0,1.69,.09,2.06,.28,.36,.19,.54,.54,.54,1.05,0,.77-.36,1.49-1.09,2.16-.73,.67-1.73,1.25-3.02,1.74-1.29,.49-2.8,.88-4.54,1.16-1.73,.28-3.62,.42-5.66,.42h-1c-.34,0-.67-.01-1-.04-.66,.66-1.21,1.32-1.65,2-.21,.3-.42,.65-.62,1.04-.2,.39-.43,.88-.7,1.49-.27,.61-.58,1.35-.93,2.23s-.77,1.97-1.25,3.29c-.48,1.31-1.05,2.87-1.72,4.66s-1.44,3.9-2.3,6.31h10.27v1.41h-10.76c-1.83,5.16-3.79,9.6-5.87,13.32-2.09,3.73-4.29,6.79-6.61,9.19-2.32,2.4-4.73,4.17-7.24,5.31-2.51,1.14-5.1,1.71-7.77,1.71-1.73,0-3.35-.22-4.83-.67-1.49-.45-2.78-1.11-3.87-1.99s-1.95-1.96-2.58-3.25c-.63-1.29-.95-2.78-.95-4.46,0-1.12,.13-2.2,.4-3.23,.27-1.03,.64-1.94,1.12-2.72,.48-.79,1.04-1.42,1.69-1.9,.64-.48,1.34-.72,2.09-.72,.49,0,.91,.12,1.27,.37s.53,.7,.53,1.35c0,.54-.14,.97-.4,1.28-.27,.32-.6,.59-1,.81-.4,.22-.84,.45-1.32,.67-.48,.22-.92,.52-1.32,.88-.4,.36-.73,.84-1,1.42-.27,.59-.4,1.36-.4,2.32,0,1.34,.25,2.53,.74,3.59s1.2,1.95,2.11,2.69,2.03,1.31,3.36,1.71c1.32,.4,2.82,.6,4.48,.6,1.24,0,2.41-.13,3.52-.39,1.1-.26,2.17-.71,3.2-1.35,1.03-.64,2.04-1.51,3.02-2.6s1.99-2.47,3.01-4.15c1.02-1.68,2.07-3.67,3.16-5.99s2.26-5.03,3.5-8.12c.42-1.05,.81-2.05,1.18-2.99,.36-.94,.71-1.83,1.04-2.67h-9.49v-1.41h10.02c.94-2.34,1.71-4.27,2.3-5.77,.6-1.5,1.1-2.73,1.51-3.69,.41-.96,.75-1.73,1.02-2.3,.27-.57,.54-1.11,.83-1.6ZM62.93,.98c-1.48,0-2.98,.22-4.5,.67-1.52,.45-2.99,1.04-4.39,1.79,1.34-.02,2.63-.11,3.88-.25,1.25-.14,2.37-.3,3.34-.49,.97-.19,1.76-.39,2.36-.62,.6-.22,.9-.45,.9-.69,0-.28-.53-.42-1.58-.42Z"/><path class="cls-1" d="M69.54,58.04c-4.24,0-7.51-1.11-9.81-3.32s-3.45-5.51-3.45-9.9c0-1.2,.09-2.46,.26-3.8s.45-2.71,.83-4.11c.84-3.14,2.03-6.05,3.57-8.72,1.53-2.67,3.3-4.98,5.29-6.93,1.99-1.95,4.14-3.47,6.43-4.57,2.3-1.1,4.61-1.65,6.93-1.65s4.19,.55,5.54,1.65c1.35,1.1,2.02,2.65,2.02,4.64,0,1.12-.22,2.23-.67,3.3-.45,1.08-1.09,2.1-1.93,3.06-.84,.96-1.86,1.86-3.04,2.69-1.18,.83-2.51,1.55-3.99,2.16-1.83,.77-3.84,1.35-6.05,1.74-2.2,.39-4.71,.58-7.52,.58-.68,1.9-1.21,3.87-1.6,5.92-.39,2.05-.58,4.14-.58,6.28,0,3.26,.69,5.61,2.06,7.05s3.53,2.16,6.49,2.16c2.46,0,4.8-.47,7.03-1.42,2.23-.95,4.29-2.2,6.19-3.74s3.63-3.31,5.2-5.29c1.57-1.98,2.94-4,4.11-6.06l1.83-3.23,.95,.67-1.83,3.23c-1.45,2.55-3.04,4.91-4.76,7.07-1.72,2.16-3.6,4.01-5.62,5.57-2.03,1.56-4.2,2.78-6.5,3.66-2.31,.88-4.76,1.32-7.37,1.32Zm11.04-41.59c-1.48,0-2.98,.43-4.52,1.3-1.54,.87-3.02,2.07-4.45,3.6-1.43,1.54-2.77,3.35-4.01,5.43-1.24,2.09-2.32,4.36-3.23,6.82,2.58-.05,4.78-.28,6.61-.69,1.83-.41,3.42-.93,4.78-1.56,1.08-.49,2.13-1.13,3.15-1.92,1.02-.79,1.92-1.68,2.71-2.69,.79-1.01,1.42-2.1,1.9-3.27,.48-1.17,.72-2.39,.72-3.66,0-.63-.09-1.16-.28-1.58-.19-.42-.45-.77-.77-1.04-.33-.27-.72-.46-1.16-.58-.45-.12-.93-.18-1.44-.18Z"/><path class="cls-1" d="M121.75,40.32c-.91,2.53-1.59,4.65-2.02,6.36-.43,1.71-.65,3.14-.65,4.29,0,1.69,.39,2.99,1.18,3.92,.79,.93,1.92,1.39,3.39,1.39s2.99-.42,4.54-1.25c1.55-.83,3.05-1.98,4.5-3.45,1.45-1.46,2.81-3.2,4.08-5.2s2.37-4.18,3.3-6.52c.87-2.2,1.56-4.45,2.09-6.75,.53-2.3,.79-4.68,.79-7.14,0-1.78-.11-3.2-.33-4.27-.22-1.07-.47-1.92-.76-2.55s-.53-1.12-.76-1.46c-.22-.34-.33-.67-.33-1,0-.42,.18-.8,.54-1.12,.36-.33,.78-.49,1.25-.49,.52,0,.95,.21,1.32,.63,.36,.42,.66,1,.9,1.72,.23,.73,.41,1.58,.53,2.57,.12,.98,.18,2.03,.18,3.13,0,1.59-.11,3.17-.33,4.73-.22,1.56-.52,3.08-.9,4.55-.38,1.48-.81,2.9-1.3,4.27s-1,2.65-1.51,3.85c-1.1,2.55-2.36,4.9-3.78,7.05-1.42,2.14-2.94,3.99-4.57,5.54-1.63,1.55-3.32,2.75-5.08,3.62s-3.53,1.3-5.31,1.3c-1.24,0-2.35-.22-3.32-.65-.97-.43-1.8-1.05-2.48-1.85-.68-.8-1.2-1.76-1.55-2.88s-.53-2.38-.53-3.76c0-.33,.01-.68,.04-1.05,.02-.37,.06-.76,.11-1.16-1.08,1.73-2.23,3.3-3.46,4.69-1.23,1.39-2.51,2.58-3.83,3.57-1.32,.98-2.68,1.75-4.08,2.29-1.39,.54-2.78,.81-4.17,.81-1.24,0-2.35-.22-3.32-.65-.97-.43-1.8-1.05-2.48-1.85-.68-.8-1.2-1.76-1.55-2.88s-.53-2.38-.53-3.76c0-1.2,.15-2.53,.44-3.99,.29-1.46,.72-2.99,1.28-4.59l8.93-24.61h5.2l-8.93,24.61c-.91,2.53-1.59,4.65-2.02,6.36-.43,1.71-.65,3.14-.65,4.29,0,1.69,.39,2.99,1.18,3.92,.79,.93,1.92,1.39,3.39,1.39s2.93-.42,4.5-1.27c1.57-.84,3.09-1.99,4.55-3.43,1.46-1.44,2.82-3.13,4.06-5.08,1.24-1.95,2.26-4.01,3.06-6.19l8.89-24.61h5.2l-8.89,24.61Z"/><path class="cls-2" d="M181.79,24.15c-.8,0-1.42-.23-1.88-.69s-.69-1.08-.69-1.88c0-.75,.2-1.36,.6-1.83,.4-.47,.93-.7,1.58-.7,.23,0,.46,.05,.67,.14,.12,.05,.2,.08,.25,.09,.05,.01,.09,.02,.14,.02,.21,0,.32-.15,.32-.46s-.12-.6-.35-.9c-.23-.29-.55-.55-.95-.77-.4-.22-.86-.4-1.39-.53-.53-.13-1.07-.19-1.63-.19-1.45,0-2.92,.42-4.41,1.27-1.49,.84-2.93,2-4.32,3.46-1.39,1.46-2.71,3.18-3.94,5.15s-2.3,4.07-3.22,6.31c-.91,2.24-1.63,4.55-2.16,6.94s-.79,4.73-.79,7.03c0,1.73,.16,3.21,.47,4.43,.32,1.22,.81,2.21,1.48,2.99s1.53,1.34,2.58,1.71c1.05,.36,2.32,.54,3.8,.54,2.18,0,4.31-.36,6.38-1.09,2.07-.73,4.08-1.79,6.01-3.18,1.93-1.39,3.77-3.12,5.52-5.17,1.75-2.05,3.37-4.41,4.87-7.08l1.83-3.23,.95,.67-1.83,3.23c-3.35,5.95-7.05,10.38-11.11,13.27-4.06,2.9-8.48,4.34-13.29,4.34-4.36,0-7.63-1.12-9.83-3.38s-3.29-5.52-3.29-9.81c0-1.27,.09-2.57,.28-3.9,.19-1.34,.46-2.68,.81-4.04,.84-3.14,2.03-6.05,3.57-8.72,1.53-2.67,3.29-4.98,5.27-6.93,1.98-1.95,4.12-3.47,6.43-4.57,2.31-1.1,4.66-1.65,7.05-1.65,2.51,0,4.42,.66,5.73,1.97,.54,.54,.95,1.13,1.23,1.78,.28,.65,.42,1.31,.42,1.99,0,1.03-.29,1.85-.86,2.46-.57,.61-1.34,.91-2.3,.91Z"/><path class="cls-2" d="M192.27,36.95c.82-3.14,2.02-6.05,3.6-8.72s3.4-4.99,5.45-6.94c2.05-1.96,4.28-3.49,6.68-4.59,2.4-1.1,4.82-1.65,7.26-1.65,1.97,0,3.63,.33,4.97,1,1.35,.67,2.43,1.56,3.25,2.69,.82,1.12,1.41,2.43,1.76,3.9s.53,3.02,.53,4.64c0,1.76-.17,3.52-.51,5.27-.34,1.76-.78,3.43-1.32,5.03-1.01,2.95-2.31,5.68-3.9,8.17-1.59,2.5-3.37,4.66-5.33,6.49-1.96,1.83-4.04,3.25-6.24,4.27-2.2,1.02-4.41,1.53-6.61,1.53-1.66,0-3.16-.3-4.48-.9-1.32-.6-2.44-1.46-3.36-2.58s-1.62-2.5-2.11-4.13c-.49-1.63-.74-3.46-.74-5.5,0-1.29,.09-2.61,.28-3.96,.19-1.35,.46-2.69,.81-4.03Zm10.12,19.34c1.69,0,3.4-.48,5.15-1.44,1.75-.96,3.43-2.3,5.06-4.03,1.63-1.72,3.15-3.78,4.55-6.17s2.61-5.02,3.62-7.88c.28-.77,.56-1.64,.83-2.6,.27-.96,.52-1.96,.76-3.01,.23-1.04,.42-2.11,.56-3.2s.21-2.15,.21-3.18c0-1.12-.11-2.2-.32-3.22s-.57-1.9-1.07-2.65c-.5-.75-1.18-1.35-2.04-1.79-.86-.44-1.92-.67-3.18-.67-1.83,0-3.64,.49-5.43,1.46-1.79,.97-3.49,2.34-5.1,4.11-1.61,1.77-3.06,3.88-4.38,6.35-1.31,2.46-2.4,5.18-3.27,8.16-.59,1.99-1.04,3.99-1.35,5.99s-.47,3.83-.47,5.47c0,5.53,1.96,8.3,5.87,8.3Z"/></g><path class="cls-2" d="M239.82,13.1l9,5.2c.19,.12,.35,.29,.49,.51,.14,.22,.21,.45,.21,.69,0,.4-.15,.72-.44,.95-.29,.23-.6,.35-.93,.35-.19,0-.38-.03-.58-.09-.2-.06-.37-.16-.51-.3l-7.52-6.29,.84,9.88c0,.38-.1,.73-.3,1.05-.2,.33-.52,.49-.97,.49-.47,0-.83-.17-1.07-.51-.25-.34-.37-.74-.37-1.21l.84-9.77-7.66,6.36c-.26,.26-.61,.39-1.05,.39-.28,0-.55-.12-.81-.35-.26-.23-.39-.55-.39-.95,0-.26,.07-.51,.21-.76s.35-.45,.63-.62l8.65-5.03-8.68-5.03c-.28-.19-.49-.4-.62-.63-.13-.23-.19-.48-.19-.74,0-.35,.12-.66,.37-.91,.25-.26,.53-.39,.86-.39,.19,0,.39,.03,.6,.09,.21,.06,.41,.17,.6,.33l7.49,6.33-.84-9.84c0-.52,.12-.93,.37-1.25s.6-.47,1.07-.47c.44,0,.77,.17,.97,.51,.2,.34,.3,.74,.3,1.21l-.84,9.77,7.56-6.33c.16-.16,.35-.28,.54-.33,.2-.06,.39-.09,.58-.09,.33,0,.63,.12,.9,.37,.27,.25,.4,.56,.4,.93,0,.54-.29,1-.88,1.37l-8.82,5.1Z"/></svg>