<?xml version="1.0" encoding="UTF-8"?><svg id="Layer_1" xmlns="http://www.w3.org/2000/svg" viewBox="0 0 185.14 54.43"><defs><style>.cls-1{fill:#262626;}.cls-2{fill:#f15a24;}</style></defs><g><path class="cls-1" d="M16.06,5.9c-3.02,.1-5.34,1.25-6.95,3.46-1.61,2.21-2.41,6.02-2.41,11.45,0,1.78,.17,3.01,.5,3.71,.33,.7,.5,1.09,.5,1.19-2.59,0-4.52-.54-5.8-1.62-1.27-1.08-1.91-2.87-1.91-5.36,0-3.41,.84-6.52,2.52-9.32,1.68-2.81,4.36-5.08,8.03-6.8C14.22,.86,18.89,0,24.55,0c1.15,0,2.69,.12,4.61,.36,3.46,.34,5.9,.5,7.34,.5,2.54,0,4.7-.29,6.48-.86-.14,.43-.41,1.38-.79,2.84-.38,1.46-1.07,2.71-2.05,3.74-.98,1.03-2.32,1.72-4,2.05-2.83,0-6.19-.46-10.08-1.37l-3.02,14.33h10.51l-1.15,5.33h-10.51l-5.83,27.07H5.69L16.06,5.9Z"/><path class="cls-1" d="M34.42,51.66c-1.97-1.85-2.95-4.74-2.95-8.68,0-3.31,.65-6.96,1.94-10.94,1.3-3.98,3.41-7.43,6.34-10.33,2.93-2.9,6.65-4.36,11.16-4.36,5.28,0,7.92,2.3,7.92,6.91,0,2.69-.77,5.16-2.3,7.42-1.54,2.26-3.58,4.07-6.12,5.44-2.54,1.37-5.26,2.15-8.14,2.34-.1,1.44-.14,2.4-.14,2.88,0,2.35,.41,3.95,1.22,4.79,.82,.84,2.14,1.26,3.96,1.26,2.59,0,4.81-.6,6.66-1.8,1.85-1.2,3.88-3.02,6.08-5.47h2.45c-5.33,8.88-11.93,13.32-19.8,13.32-3.55,0-6.31-.92-8.28-2.77Zm13.5-17.53c1.61-1.15,2.9-2.62,3.89-4.39,.98-1.77,1.48-3.65,1.48-5.62s-.6-2.95-1.8-2.95c-1.73,0-3.42,1.51-5.08,4.54-1.66,3.02-2.84,6.46-3.56,10.3,1.78-.1,3.47-.72,5.08-1.87Z"/><path class="cls-1" d="M61.6,52.27c-1.42-1.44-2.12-3.6-2.12-6.48,0-1.2,.19-2.76,.58-4.68l4.9-23.11h10.37l-5.18,24.48c-.14,.58-.22,1.18-.22,1.8,0,2.11,.72,3.17,2.16,3.17,1.34,0,2.5-.56,3.46-1.69,.96-1.13,1.73-2.68,2.3-4.64l4.9-23.11h10.37l-5.18,24.48c-.24,1.2-.36,2.06-.36,2.59,0,1.58,.82,2.38,2.45,2.38,2.21,0,4.26-1.39,6.16-4.18,1.9-2.78,3.42-6.1,4.57-9.94,1.15-3.84,1.73-7.15,1.73-9.94-.1,.24-.41,.42-.94,.54-.53,.12-.98,.18-1.37,.18-.82,0-1.45-.38-1.91-1.15-.46-.77-.68-1.61-.68-2.52,0-1.15,.37-2.09,1.12-2.81,.74-.72,1.86-1.08,3.35-1.08,1.58,0,2.74,.59,3.46,1.76,.72,1.18,1.08,2.68,1.08,4.5,0,4.32-.75,8.94-2.23,13.86-1.49,4.92-3.77,9.11-6.84,12.56-3.07,3.46-6.89,5.18-11.45,5.18-2.35,0-4.27-.5-5.76-1.51-1.49-1.01-2.45-2.52-2.88-4.54-2.69,4.03-6.1,6.05-10.22,6.05-2.3,0-4.16-.72-5.58-2.16Z"/><path class="cls-2" d="M109.65,51.66c-1.97-1.85-2.95-4.74-2.95-8.68,0-3.31,.66-6.96,1.98-10.94,1.32-3.98,3.43-7.43,6.34-10.33s6.59-4.36,11.05-4.36c2.88,0,4.93,.62,6.16,1.87,1.22,1.25,1.84,2.83,1.84,4.75,0,1.68-.36,2.98-1.08,3.89-.72,.91-1.63,1.37-2.74,1.37-.82,0-1.66-.29-2.52-.86,.58-1.58,.86-3,.86-4.25,0-.91-.17-1.63-.5-2.16-.34-.53-.84-.79-1.51-.79-1.44,0-2.88,1.18-4.32,3.53-1.44,2.35-2.62,5.21-3.53,8.57-.91,3.36-1.37,6.38-1.37,9.07,0,2.35,.41,3.95,1.22,4.79,.82,.84,2.14,1.26,3.96,1.26,2.59,0,4.81-.6,6.66-1.8,1.85-1.2,3.88-3.02,6.08-5.47h2.45c-5.33,8.88-11.93,13.32-19.8,13.32-3.55,0-6.31-.92-8.28-2.77Z"/><path class="cls-2" d="M137.37,51.55c-2.06-1.82-3.1-4.7-3.1-8.64,0-3.31,.65-6.95,1.94-10.91s3.41-7.39,6.34-10.3c2.93-2.9,6.67-4.36,11.23-4.36,5.66,0,8.71,3.24,9.14,9.72,1.06-.24,1.99-.83,2.81-1.76,.82-.94,1.58-2,2.3-3.2h2.3c-1.3,2.59-2.45,4.62-3.46,6.08-1.01,1.46-2.33,2.65-3.96,3.56-.29,4.51-1.21,8.47-2.77,11.88-1.56,3.41-3.59,6.04-6.08,7.88-2.5,1.85-5.26,2.77-8.28,2.77-3.55,0-6.36-.91-8.42-2.74Zm16.27-8.06c1.54-2.88,2.59-6.43,3.17-10.66-1.15-.43-1.73-1.51-1.73-3.24,0-1.87,.67-3.12,2.02-3.74-.1-1.54-.35-2.6-.76-3.2-.41-.6-1.07-.9-1.98-.9-1.58,0-3.1,1.14-4.54,3.42-1.44,2.28-2.6,5.04-3.49,8.28-.89,3.24-1.33,6.08-1.33,8.53,0,2.3,.26,3.85,.79,4.64,.53,.79,1.49,1.19,2.88,1.19,1.78,0,3.43-1.44,4.97-4.32Z"/></g><path class="cls-2" d="M174.24,18.95l1.15-6.96c-.93,1.12-1.74,1.92-2.45,2.4-.7,.48-1.41,.72-2.11,.72s-1.28-.26-1.73-.77c-.45-.51-.67-1.17-.67-1.97,0-.29,.02-.5,.05-.62l6.1-1.97c-2.24-.38-3.77-.86-4.58-1.42-.82-.56-1.22-1.26-1.22-2.09,0-.54,.13-1.02,.38-1.44,.26-.42,.72-.91,1.39-1.49l4.85,4.27c-.54-1.95-.82-3.39-.82-4.32,0-2.02,.86-3.02,2.59-3.02,.45,0,1.14,.13,2.06,.38l-1.2,6.96c.93-1.12,1.77-1.94,2.52-2.45,.75-.51,1.46-.77,2.14-.77,.74,0,1.33,.26,1.78,.77,.45,.51,.67,1.17,.67,1.97,0,.16-.03,.37-.1,.62l-6.24,2.02c2.21,.42,3.72,.9,4.54,1.46,.82,.56,1.22,1.26,1.22,2.09,0,.58-.12,1.07-.36,1.49-.24,.42-.7,.9-1.37,1.44l-4.8-4.27c.51,2.05,.77,3.49,.77,4.32,0,2.02-.85,3.02-2.54,3.02-.48,0-1.15-.13-2.02-.38Z"/></svg>